<svg version="1.1" id="Layer_1" xmlns="http://www.w3.org/2000/svg" xmlns:xlink="http://www.w3.org/1999/xlink" x="0px" y="0px"
	 width="100%" viewBox="0 0 512 512" enable-background="new 0 0 512 512" xml:space="preserve">
<path fill="#35DC86" opacity="1.000000" stroke="none" 
	d="
M513.000000,135.000000 
	C513.000000,145.020889 513.000000,155.041794 512.663452,165.731110 
	C510.468048,174.831665 509.289795,183.484116 506.642578,191.661011 
	C485.614014,256.616211 421.341309,295.000153 354.201141,282.035034 
	C340.846741,279.456238 328.194122,273.243500 315.003387,268.443298 
	C314.083923,267.737793 313.376373,267.299500 312.674347,266.852509 
	C262.080200,234.638199 240.137344,188.931656 247.912476,129.252625 
	C248.446869,125.150803 249.195679,121.076927 249.921356,116.603058 
	C253.140747,107.842880 255.638443,99.153374 259.557587,91.160858 
	C268.327942,73.275063 280.935364,58.360153 296.538422,45.890076 
	C320.044586,27.103729 347.157898,18.235449 376.807037,17.220675 
	C387.214386,16.864470 397.941071,18.014305 408.120300,20.280468 
	C438.889313,27.130453 464.423248,42.880886 484.205841,67.671028 
	C495.552216,81.889458 503.692810,97.737801 508.561798,115.222771 
	C510.371948,121.723076 511.539459,128.402344 513.000000,135.000000 
M409.866272,127.366219 
	C388.701660,148.535431 367.537079,169.704651 346.178589,191.067825 
	C344.669952,189.668091 343.440002,188.595566 342.286987,187.445908 
	C335.330109,180.509323 328.495728,173.445984 321.414398,166.639313 
	C315.114075,160.583344 306.580505,161.725616 302.958282,168.846725 
	C300.675964,173.333694 301.751221,178.281189 306.259247,182.830673 
	C315.869690,192.529404 325.556274,202.152695 335.219208,211.799362 
	C343.394531,219.960922 348.663269,219.994904 356.748474,211.912308 
	C388.308319,180.362640 419.866180,148.810974 451.398651,117.233940 
	C452.916046,115.714417 454.416077,114.087402 455.524445,112.267059 
	C458.468109,107.432503 457.112610,101.446449 452.531464,98.085091 
	C447.632599,94.490585 442.120148,95.212738 436.873749,100.390175 
	C427.985077,109.161987 419.196777,118.035484 409.866272,127.366219 
z"/>
<path fill="#FFFFFF" opacity="1.000000" stroke="none" 
	d="
M513.000000,134.531342 
	C511.539459,128.402344 510.371948,121.723076 508.561798,115.222771 
	C503.692810,97.737801 495.552216,81.889458 484.205841,67.671028 
	C464.423248,42.880886 438.889313,27.130453 408.120300,20.280468 
	C397.941071,18.014305 387.214386,16.864470 376.807037,17.220675 
	C347.157898,18.235449 320.044586,27.103729 296.538422,45.890076 
	C280.935364,58.360153 268.327942,73.275063 259.557587,91.160858 
	C255.638443,99.153374 253.140747,107.842880 249.462769,116.606750 
	C183.031784,116.998276 117.135872,116.947884 51.240353,117.088020 
	C45.367523,117.100510 39.293102,117.612213 33.665062,119.168083 
	C18.176487,123.449875 7.611117,133.274948 2.616164,149.122681 
	C1.883247,150.543991 1.441622,151.771988 0.999999,153.000000 
	C1.000000,102.361107 1.000000,51.722210 1.000000,1.041657 
	C171.545334,1.041657 342.090698,1.041657 513.000000,1.041657 
	C513.000000,45.353565 513.000000,89.708122 513.000000,134.531342 
z"/>
<path fill="#F6B445" opacity="1.000000" stroke="none" 
	d="
M0.999999,153.467850 
	C1.441622,151.771988 1.883247,150.543991 2.966595,149.275665 
	C7.487508,150.648239 11.762328,151.429520 15.184032,153.572769 
	C45.776573,172.735031 76.226608,192.124969 106.702881,211.472626 
	C134.932037,229.393738 163.163528,247.311356 191.346481,265.304901 
	C199.319717,270.395447 207.126358,275.746948 214.830841,281.264862 
	C212.414108,284.221313 210.363373,287.078918 207.910339,289.534668 
	C145.189682,352.324860 82.420311,415.066376 19.704464,477.861328 
	C17.870270,479.697815 16.523491,482.021088 14.602110,484.054169 
	C7.074670,477.919586 4.118681,469.412903 1.000000,461.000000 
	C1.000000,358.645233 1.000000,256.290466 0.999999,153.467850 
z"/>
<path fill="#F6B445" opacity="1.000000" stroke="none" 
	d="
M315.217865,268.706512 
	C328.194122,273.243500 340.846741,279.456238 354.201141,282.035034 
	C421.341309,295.000153 485.614014,256.616211 506.642578,191.661011 
	C509.289795,183.484116 510.468048,174.831665 512.663452,166.199768 
	C513.000000,264.020905 513.000000,362.041779 512.666260,460.712830 
	C510.090912,470.222168 506.730621,478.428497 498.957611,483.778992 
	C497.304840,481.525177 495.904419,479.450714 494.167603,477.712402 
	C431.359406,414.849640 368.504822,352.033264 305.737274,289.129974 
	C303.099060,286.486023 301.231049,283.073486 299.246643,279.786316 
	C304.732056,275.937897 309.974945,272.322205 315.217865,268.706512 
z"/>
<path fill="#FFFFFF" opacity="1.000000" stroke="none" 
	d="
M499.053131,484.115051 
	C506.730621,478.428497 510.090912,470.222168 512.666260,461.181458 
	C513.000000,478.321014 513.000000,495.641998 513.000000,512.956787 
	C342.333313,512.950623 171.666656,512.950623 1.000000,512.950623 
	C1.000000,495.913269 1.000000,478.925293 1.000000,461.468658 
	C4.118681,469.412903 7.074670,477.919586 14.752084,484.354004 
	C24.101456,493.788086 35.424274,496.906097 47.493164,496.917999 
	C179.894547,497.048676 312.296082,497.021698 444.697571,496.957001 
	C454.796692,496.952057 464.920319,496.665955 474.987152,495.907562 
	C484.425873,495.196472 492.668823,491.387177 499.053131,484.115051 
z"/>
<path fill="#FED049" opacity="1.000000" stroke="none" 
	d="
M315.003387,268.443298 
	C309.974945,272.322205 304.732056,275.937897 298.938293,279.933472 
	C285.973206,288.388397 273.511322,296.391907 261.180054,304.591858 
	C258.307648,306.501923 255.998260,306.871857 253.057800,304.775085 
	C248.863327,301.784119 244.427826,299.125427 240.046021,296.404144 
	C231.718918,291.232635 223.356903,286.117371 215.009384,280.978760 
	C207.126358,275.746948 199.319717,270.395447 191.346481,265.304901 
	C163.163528,247.311356 134.932037,229.393738 106.702881,211.472626 
	C76.226608,192.124969 45.776573,172.735031 15.184032,153.572769 
	C11.762328,151.429520 7.487508,150.648239 3.257888,149.082367 
	C7.611117,133.274948 18.176487,123.449875 33.665062,119.168083 
	C39.293102,117.612213 45.367523,117.100510 51.240353,117.088020 
	C117.135872,116.947884 183.031784,116.998276 249.386185,116.993744 
	C249.195679,121.076927 248.446869,125.150803 247.912476,129.252625 
	C240.137344,188.931656 262.080200,234.638199 312.674347,266.852509 
	C313.376373,267.299500 314.083923,267.737793 315.003387,268.443298 
z"/>
<path fill="#F0F2F2" opacity="1.000000" stroke="none" 
	d="
M410.116272,127.116226 
	C419.196777,118.035484 427.985077,109.161987 436.873749,100.390175 
	C442.120148,95.212738 447.632599,94.490585 452.531464,98.085091 
	C457.112610,101.446449 458.468109,107.432503 455.524445,112.267059 
	C454.416077,114.087402 452.916046,115.714417 451.398651,117.233940 
	C419.866180,148.810974 388.308319,180.362640 356.748474,211.912308 
	C348.663269,219.994904 343.394531,219.960922 335.219208,211.799362 
	C325.556274,202.152695 315.869690,192.529404 306.259247,182.830673 
	C301.751221,178.281189 300.675964,173.333694 302.958282,168.846725 
	C306.580505,161.725616 315.114075,160.583344 321.414398,166.639313 
	C328.495728,173.445984 335.330109,180.509323 342.286987,187.445908 
	C343.440002,188.595566 344.669952,189.668091 346.178589,191.067825 
	C367.537079,169.704651 388.701660,148.535431 410.116272,127.116226 
z"/>
<path fill="#F6A945" opacity="1.000000" stroke="none" 
	d="
M214.830841,281.264862 
	C223.356903,286.117371 231.718918,291.232635 240.046021,296.404144 
	C244.427826,299.125427 248.863327,301.784119 253.057800,304.775085 
	C255.998260,306.871857 258.307648,306.501923 261.180054,304.591858 
	C273.511322,296.391907 285.973206,288.388397 298.695831,280.166168 
	C301.231049,283.073486 303.099060,286.486023 305.737274,289.129974 
	C368.504822,352.033264 431.359406,414.849640 494.167603,477.712402 
	C495.904419,479.450714 497.304840,481.525177 498.957611,483.778992 
	C492.668823,491.387177 484.425873,495.196472 474.987152,495.907562 
	C464.920319,496.665955 454.796692,496.952057 444.697571,496.957001 
	C312.296082,497.021698 179.894547,497.048676 47.493164,496.917999 
	C35.424274,496.906097 24.101456,493.788086 15.099421,484.417206 
	C16.523491,482.021088 17.870270,479.697815 19.704464,477.861328 
	C82.420311,415.066376 145.189682,352.324860 207.910339,289.534668 
	C210.363373,287.078918 212.414108,284.221313 214.830841,281.264862 
z"/>
</svg>